<svg width="26" height="24" viewBox="0 0 26 24" fill="none" xmlns="http://www.w3.org/2000/svg">
<path d="M13 1.6875C12.7127 1.6875 12.4283 1.74408 12.1629 1.85401C11.8975 1.96395 11.6563 2.12508 11.4532 2.3282C11.2501 2.53133 11.0889 2.77248 10.979 3.03788C10.8691 3.30328 10.8125 3.58773 10.8125 3.875C10.8125 4.16227 10.8691 4.44672 10.979 4.71212C11.0889 4.97752 11.2501 5.21867 11.4532 5.42179C11.6563 5.62492 11.8975 5.78605 12.1629 5.89599C12.4283 6.00592 12.7127 6.0625 13 6.0625C13.5802 6.0625 14.1366 5.83203 14.5468 5.42179C14.957 5.01156 15.1875 4.45516 15.1875 3.875C15.1875 3.29484 14.957 2.73844 14.5468 2.3282C14.1366 1.91797 13.5802 1.6875 13 1.6875ZM9.25 3.875C9.25 2.88044 9.64509 1.92661 10.3484 1.22335C11.0516 0.520088 12.0054 0.125 13 0.125C13.9946 0.125 14.9484 0.520088 15.6517 1.22335C16.3549 1.92661 16.75 2.88044 16.75 3.875C16.75 4.86956 16.3549 5.82339 15.6517 6.52665C14.9484 7.22991 13.9946 7.625 13 7.625C12.0054 7.625 11.0516 7.22991 10.3484 6.52665C9.64509 5.82339 9.25 4.86956 9.25 3.875ZM21.125 2.9375C20.7106 2.9375 20.3132 3.10212 20.0201 3.39514C19.7271 3.68817 19.5625 4.0856 19.5625 4.5C19.5625 4.9144 19.7271 5.31183 20.0201 5.60485C20.3132 5.89788 20.7106 6.0625 21.125 6.0625C21.5394 6.0625 21.9368 5.89788 22.2299 5.60485C22.5229 5.31183 22.6875 4.9144 22.6875 4.5C22.6875 4.0856 22.5229 3.68817 22.2299 3.39514C21.9368 3.10212 21.5394 2.9375 21.125 2.9375ZM18 4.5C18 3.6712 18.3292 2.87634 18.9153 2.29029C19.5013 1.70424 20.2962 1.375 21.125 1.375C21.9538 1.375 22.7487 1.70424 23.3347 2.29029C23.9208 2.87634 24.25 3.6712 24.25 4.5C24.25 5.3288 23.9208 6.12366 23.3347 6.70971C22.7487 7.29576 21.9538 7.625 21.125 7.625C20.2962 7.625 19.5013 7.29576 18.9153 6.70971C18.3292 6.12366 18 5.3288 18 4.5ZM3.3125 4.5C3.3125 4.0856 3.47712 3.68817 3.77015 3.39514C4.06317 3.10212 4.4606 2.9375 4.875 2.9375C5.2894 2.9375 5.68683 3.10212 5.97986 3.39514C6.27288 3.68817 6.4375 4.0856 6.4375 4.5C6.4375 4.9144 6.27288 5.31183 5.97986 5.60485C5.68683 5.89788 5.2894 6.0625 4.875 6.0625C4.4606 6.0625 4.06317 5.89788 3.77015 5.60485C3.47712 5.31183 3.3125 4.9144 3.3125 4.5ZM4.875 1.375C4.0462 1.375 3.25134 1.70424 2.66529 2.29029C2.07924 2.87634 1.75 3.6712 1.75 4.5C1.75 5.3288 2.07924 6.12366 2.66529 6.70971C3.25134 7.29576 4.0462 7.625 4.875 7.625C5.7038 7.625 6.49866 7.29576 7.08471 6.70971C7.67076 6.12366 8 5.3288 8 4.5C8 3.6712 7.67076 2.87634 7.08471 2.29029C6.49866 1.70424 5.7038 1.375 4.875 1.375ZM7.375 11.5312C7.375 10.8268 7.65486 10.1511 8.153 9.653C8.65114 9.15485 9.32677 8.875 10.0313 8.875H15.9688C16.6732 8.875 17.3489 9.15485 17.847 9.653C18.3451 10.1511 18.625 10.8268 18.625 11.5312V18.25C18.625 19.7418 18.0324 21.1726 16.9775 22.2275C15.9226 23.2824 14.4918 23.875 13 23.875C11.5082 23.875 10.0774 23.2824 9.02253 22.2275C7.96763 21.1726 7.375 19.7418 7.375 18.25V11.5312ZM13 22.3125C14.0774 22.3125 15.1108 21.8845 15.8726 21.1226C16.6345 20.3608 17.0625 19.3274 17.0625 18.25V11.5312C17.0625 11.2412 16.9473 10.963 16.7422 10.7579C16.537 10.5527 16.2588 10.4375 15.9688 10.4375H10.0313C9.74117 10.4375 9.46297 10.5527 9.25785 10.7579C9.05274 10.963 8.9375 11.2412 8.9375 11.5312V18.25C8.9375 19.3274 9.36551 20.3608 10.1274 21.1226C10.8892 21.8845 11.9226 22.3125 13 22.3125ZM4.875 20.4375C5.39757 20.4377 5.90984 20.2922 6.35438 20.0175C6.49125 20.5337 6.68688 21.0256 6.93313 21.4862C6.26646 21.8416 5.51912 22.0184 4.76389 21.9992C4.00865 21.98 3.27125 21.7656 2.62349 21.3768C1.97573 20.988 1.43969 20.4381 1.06756 19.7806C0.695433 19.1231 0.499899 18.3805 0.5 17.625V11.5319C0.499918 11.183 0.568563 10.8375 0.702016 10.5152C0.835468 10.1928 1.03111 9.89994 1.27778 9.65322C1.52444 9.4065 1.81729 9.21078 2.1396 9.07725C2.46192 8.94373 2.80737 8.875 3.15625 8.875H6.59375C6.77417 8.87541 6.94938 8.89271 7.11938 8.92687C6.73014 9.36131 6.4433 9.87752 6.28 10.4375H3.15625C2.86617 10.4375 2.58797 10.5527 2.38285 10.7579C2.17773 10.963 2.0625 11.2412 2.0625 11.5312V17.625C2.0625 18.3709 2.35882 19.0863 2.88626 19.6137C3.41371 20.1412 4.12908 20.4375 4.875 20.4375ZM21.125 22C20.4073 22.0004 19.7004 21.8241 19.0669 21.4869C19.3131 21.0256 19.5088 20.5337 19.6456 20.0175C20.0717 20.281 20.5604 20.4259 21.0612 20.4373C21.5621 20.4486 22.0569 20.326 22.4944 20.0821C22.932 19.8382 23.2965 19.4818 23.5502 19.0498C23.8039 18.6179 23.9376 18.126 23.9375 17.625V11.5312C23.9375 11.2412 23.8223 10.963 23.6172 10.7579C23.412 10.5527 23.1338 10.4375 22.8438 10.4375H19.72C19.5565 9.87747 19.2695 9.36125 18.88 8.92687C19.0508 8.89271 19.2263 8.87541 19.4063 8.875H22.8438C23.5482 8.875 24.2239 9.15485 24.722 9.653C25.2201 10.1511 25.5 10.8268 25.5 11.5312V17.625C25.5 18.7853 25.0391 19.8981 24.2186 20.7186C23.3981 21.5391 22.2853 22 21.125 22Z" fill="black"/>
</svg>
