<svg width="26" height="26" viewBox="0 0 26 26" fill="none" xmlns="http://www.w3.org/2000/svg">
<path d="M24.0004 7.74529C25.3013 10.4662 25.5483 13.5725 24.6936 16.4647C23.839 19.3569 21.9433 21.8301 19.3724 23.4068C16.8015 24.9835 13.7377 25.5521 10.7723 25.0027C7.80684 24.4533 5.15003 22.8249 3.31461 20.4319C1.47918 18.0388 0.595249 15.0507 0.833405 12.0442C1.07156 9.03777 2.41492 6.2261 4.60422 4.15185C6.79352 2.07761 9.67356 0.88785 12.6885 0.812192C15.7034 0.736534 18.6395 1.78034 20.9301 3.74217L23.5867 1.08435C23.7626 0.90844 24.0012 0.809613 24.25 0.809613C24.4988 0.809613 24.7374 0.90844 24.9133 1.08435C25.0892 1.26027 25.188 1.49886 25.188 1.74763C25.188 1.99641 25.0892 2.235 24.9133 2.41092L13.6633 13.6609C13.4874 13.8368 13.2488 13.9357 13 13.9357C12.7512 13.9357 12.5126 13.8368 12.3367 13.6609C12.1608 13.485 12.062 13.2464 12.062 12.9976C12.062 12.7489 12.1608 12.5103 12.3367 12.3344L15.5852 9.08591C14.7048 8.50367 13.6537 8.23559 12.602 8.32507C11.5503 8.41455 10.5596 8.85635 9.79026 9.57895C9.02091 10.3015 8.51795 11.2627 8.3628 12.3067C8.20766 13.3507 8.4094 14.4165 8.93538 15.3316C9.46136 16.2467 10.2808 16.9575 11.261 17.3489C12.2412 17.7404 13.3249 17.7895 14.3365 17.4884C15.3481 17.1874 16.2286 16.5537 16.8352 15.69C17.4419 14.8262 17.7393 13.7831 17.6793 12.7293C17.6724 12.6062 17.6898 12.4829 17.7305 12.3665C17.7712 12.2501 17.8344 12.1429 17.9166 12.0509C17.9988 11.959 18.0982 11.8841 18.2093 11.8306C18.3204 11.7771 18.441 11.746 18.5641 11.739C18.8127 11.7251 19.0567 11.8104 19.2424 11.9763C19.3344 12.0585 19.4093 12.158 19.4628 12.2691C19.5163 12.3801 19.5474 12.5007 19.5543 12.6238C19.6398 14.1153 19.2138 15.5914 18.3467 16.808C17.4796 18.0246 16.2233 18.909 14.7856 19.3149C13.3478 19.7208 11.8145 19.624 10.4392 19.0404C9.06392 18.4568 7.9289 17.4215 7.22175 16.1055C6.5146 14.7894 6.27766 13.2715 6.55008 11.8026C6.82251 10.3336 7.58799 9.00163 8.72002 8.02669C9.85204 7.05175 11.2828 6.49225 12.7759 6.44065C14.269 6.38906 15.735 6.84847 16.9317 7.74295L19.5977 5.07693C17.6439 3.45482 15.1597 2.61173 12.6223 2.7096C10.0848 2.80746 7.67292 3.83939 5.84992 5.60716C4.02692 7.37494 2.92131 9.75393 2.74545 12.2872C2.5696 14.8205 3.33589 17.3294 4.89715 19.3321C6.45842 21.3348 8.70456 22.6901 11.2042 23.1376C13.7038 23.5852 16.2806 23.0934 18.4398 21.7568C20.5989 20.4202 22.1881 18.333 22.9021 15.8961C23.6161 13.4592 23.4046 10.8444 22.3082 8.55388C22.201 8.32948 22.1873 8.07168 22.2701 7.83719C22.353 7.60269 22.5256 7.41072 22.75 7.30349C22.9744 7.19627 23.2322 7.18257 23.4667 7.26543C23.7012 7.34828 23.8932 7.52089 24.0004 7.74529Z" fill="black"/>
</svg>
